<?xml version="1.0" encoding="UTF-8" standalone="no"?><!-- Generator: Gravit.io --><svg xmlns="http://www.w3.org/2000/svg" xmlns:xlink="http://www.w3.org/1999/xlink" style="isolation:isolate" viewBox="731 138 796.049 672" width="796.049pt" height="672pt"><defs><clipPath id="_clipPath_Jbl4McwFgk4x7vVPvmxYe6CFPWovcckQ"><rect x="731" y="138" width="796.049" height="672"/></clipPath></defs><g clip-path="url(#_clipPath_Jbl4McwFgk4x7vVPvmxYe6CFPWovcckQ)"><g><path d=" M 987 650 C 918.62 650 854.333 623.371 805.98 575.02 C 757.629 526.667 731 462.38 731 394 C 731 325.62 757.629 261.333 805.98 212.98 C 854.333 164.629 918.62 138 987 138 C 1055.38 138 1119.667 164.629 1168.02 212.98 C 1216.371 261.333 1243 325.62 1243 394 C 1243 462.38 1216.371 526.667 1168.02 575.02 C 1119.667 623.371 1055.38 650 987 650 L 987 650 Z " fill="rgb(255,100,70)"/><path d=" M 987 138 L 987 650 C 1055.38 650 1119.667 623.371 1168.02 575.02 C 1216.371 526.667 1243 462.38 1243 394 C 1243 325.62 1216.371 261.333 1168.02 212.98 C 1119.667 164.629 1055.38 138 987 138 L 987 138 Z " fill="rgb(255,50,10)"/><path d=" M 987 589 C 879.477 589 792 501.523 792 394 C 792 286.477 879.477 199 987 199 C 1094.523 199 1182 286.477 1182 394 C 1182 501.523 1094.523 589 987 589 Z " fill="rgb(255,50,10)"/><path d=" M 1182 394 C 1182 286.477 1094.523 199 987 199 L 987 589 C 1094.523 589 1182 501.523 1182 394 Z " fill="rgb(210,25,0)"/><path d=" M 987 509 C 923.589 509 872 457.411 872 394 C 872 357.515 888.836 323.98 918.19 301.994 C 924.82 297.028 934.222 298.377 939.188 305.008 C 944.154 311.639 942.805 321.04 936.174 326.006 C 914.456 342.272 902 367.056 902 394 C 902 440.869 940.131 479 987 479 C 1033.869 479 1072 440.869 1072 394 C 1072 367.056 1059.544 342.272 1037.825 326.006 C 1031.194 321.04 1029.845 311.639 1034.811 305.008 C 1039.777 298.377 1049.179 297.028 1055.809 301.994 C 1085.164 323.98 1102 357.515 1102 394 C 1102 457.411 1050.411 509 987 509 Z " fill="rgb(220,245,250)"/><path d=" M 987 349 C 978.716 349 972 342.284 972 334 L 972 274 C 972 265.716 978.716 259 987 259 C 995.284 259 1002 265.716 1002 274 L 1002 334 C 1002 342.284 995.284 349 987 349 Z " fill="rgb(220,245,250)"/><g><path d=" M 1102 394 C 1102 357.515 1085.164 323.98 1055.81 301.994 C 1049.18 297.028 1039.778 298.377 1034.812 305.008 C 1029.846 311.639 1031.195 321.04 1037.826 326.006 C 1059.544 342.272 1072 367.056 1072 394 C 1072 440.869 1033.869 479 987 479 L 987 509 C 1050.411 509 1102 457.411 1102 394 Z " fill="rgb(190,220,230)"/><path d=" M 1002 334 L 1002 274 C 1002 265.716 995.284 259 987 259 L 987 349 C 995.284 349 1002 342.284 1002 334 Z " fill="rgb(190,220,230)"/></g></g><g><path d=" M 1324.517 710.53 L 1246.442 803.393 C 1240.835 809.491 1232.358 811.485 1224.883 808.885 C 1223.573 808.429 1222.278 807.804 1221.023 807.061 C 1212.774 802.048 1209.13 791.857 1212.269 782.626 L 1285.425 567.502 L 1147.719 556.593 C 1141.208 554.328 1136.264 548.847 1134.608 542.06 C 1132.939 535.311 1134.755 528.07 1139.462 522.971 L 1360.543 255.759 L 1324.517 710.53 L 1324.517 710.53 Z " fill="rgb(255,193,7)"/><path d=" M 1323.441 711.448 L 1521.58 475.779 C 1526.261 470.628 1528.128 463.492 1526.433 456.691 C 1524.791 449.865 1519.834 444.423 1513.322 442.157 L 1376.083 425.369 L 1449.238 210.245 C 1452.377 201.014 1448.733 190.823 1440.485 185.811 C 1432.095 180.705 1421.624 182.355 1415.065 189.478 L 1359.468 256.677 L 1323.441 711.448 L 1323.441 711.448 Z " fill="rgb(236,177,0)"/></g></g></svg>